<svg xmlns="http://www.w3.org/2000/svg" viewBox="0 0 512 512" width="512" height="512">
  <defs>
    <filter id="glow">
      <feGaussianBlur stdDeviation="4" result="b"/>
      <feMerge><feMergeNode in="b"/><feMergeNode in="SourceGraphic"/></feMerge>
    </filter>
    <clipPath id="clip">
      <rect width="512" height="512" rx="112"/>
    </clipPath>
  </defs>
  <g clip-path="url(#clip)">
    <rect width="512" height="512" fill="#6d28d9"/>
    <g transform="translate(256,230)" filter="url(#glow)">
      <rect x="-48" y="-110" width="96" height="140" rx="48" fill="#ffffff"/>
      <line x1="-30" y1="-72" x2="30" y2="-72" stroke="#6d28d9" stroke-width="2" stroke-opacity="0.25"/>
      <line x1="-36" y1="-52" x2="36" y2="-52" stroke="#6d28d9" stroke-width="2" stroke-opacity="0.25"/>
      <line x1="-38" y1="-32" x2="38" y2="-32" stroke="#6d28d9" stroke-width="2" stroke-opacity="0.25"/>
      <line x1="-36" y1="-12" x2="36" y2="-12" stroke="#6d28d9" stroke-width="2" stroke-opacity="0.25"/>
      <line x1="-30" y1="8" x2="30" y2="8" stroke="#6d28d9" stroke-width="2" stroke-opacity="0.25"/>
      <rect x="-18" y="30" width="36" height="80" rx="8" fill="#ffffff"/>
      <rect x="-28" y="26" width="56" height="10" rx="4" fill="#ffffff" stroke="#6d28d9" stroke-width="1" stroke-opacity="0.15"/>
      <circle cx="0" cy="60" r="5" fill="#6d28d9" opacity="0.4"/>
    </g>
    <g transform="translate(256,438)" opacity="0.9">
      <rect x="-100" y="-16" width="56" height="6" rx="3" fill="#ffffff"/>
      <rect x="-22" y="-16" width="56" height="6" rx="3" fill="#ffffff"/>
      <rect x="56" y="-16" width="56" height="6" rx="3" fill="#ffffff"/>
      <rect x="-100" y="-2" width="56" height="6" rx="3" fill="#ffffff" opacity="0.45"/>
      <rect x="-22" y="-2" width="56" height="6" rx="3" fill="#ffffff" opacity="0.45"/>
      <rect x="56" y="-2" width="56" height="6" rx="3" fill="#ffffff" opacity="0.45"/>
    </g>
  </g>
  <rect width="512" height="512" rx="112" fill="none" stroke="#5820b0" stroke-width="1"/>
</svg>
