<svg xmlns="http://www.w3.org/2000/svg" viewBox="0 0 512 512" width="512" height="512">
  <defs>
    <filter id="glow">
      <feGaussianBlur stdDeviation="4" result="b"/>
      <feMerge><feMergeNode in="b"/><feMergeNode in="SourceGraphic"/></feMerge>
    </filter>
    <clipPath id="clip">
      <rect width="512" height="512" rx="112"/>
    </clipPath>
  </defs>
  <g clip-path="url(#clip)">
    <rect width="512" height="512" fill="#cc2936"/>
    <g transform="translate(256,244)" filter="url(#glow)">
      <rect x="-130" y="-80" width="260" height="170" rx="18" fill="#ffffff"/>
      <rect x="-50" y="-105" width="70" height="30" rx="6" fill="#ffffff"/>
      <circle r="58" fill="#cc2936" stroke="#ffffff" stroke-width="4"/>
      <circle r="44" fill="none" stroke="#ffffff" stroke-width="2" stroke-opacity="0.5"/>
      <circle r="28" fill="none" stroke="#ffffff" stroke-width="1.5" stroke-opacity="0.4"/>
      <circle r="12" fill="#ffffff" opacity="0.2"/>
      <circle cx="-16" cy="-16" r="6" fill="#ffffff" opacity="0.25"/>
      <circle cx="95" cy="-50" r="7" fill="#cc2936" stroke="#ffffff" stroke-width="2"/>
    </g>
    <g transform="translate(256,430)" opacity="0.9">
      <rect x="-100" y="-16" width="56" height="6" rx="3" fill="#ffffff"/>
      <rect x="-22" y="-16" width="56" height="6" rx="3" fill="#ffffff"/>
      <rect x="56" y="-16" width="56" height="6" rx="3" fill="#ffffff"/>
      <rect x="-100" y="-2" width="56" height="6" rx="3" fill="#ffffff" opacity="0.45"/>
      <rect x="-22" y="-2" width="56" height="6" rx="3" fill="#ffffff" opacity="0.45"/>
      <rect x="56" y="-2" width="56" height="6" rx="3" fill="#ffffff" opacity="0.45"/>
    </g>
  </g>
  <rect width="512" height="512" rx="112" fill="none" stroke="#a01f2a" stroke-width="1"/>
</svg>
